<?xml version="1.0" encoding="UTF-8"?>
<svg xmlns="http://www.w3.org/2000/svg" viewBox="0 0 64 64">
 <g>
  <path fill="#16731f" d="m0,0l64,0l0,64l-64,0l0,-64z" id="svg_1"/>
  <path fill="#FFF" d="m14,14l32,0l0,36l-32,0l0,-36z" id="svg_2"/>
  <path fill="#16731f" d="m14,14l4,0l0,4l-4,0l0,-4z" id="svg_7"/>
  <path fill="#16731f" d="m16,14l2,0l0,36l-2,0l0,-36z" opacity="0.5" id="svg_8"/>
 </g>
 <g>
   <g class="icon-color" opacity="0.5" id="svg_9" stroke="null">
    <path d="M 43.1 20.5 l -15.6 0 c -0.3 0 -0.5 0.2 -0.5 0.5 l 0 6.1 l 9.2 0 l 0.8 -1.6 l -6.7 0 l 0 -1.6 l 3.3 0 l 0 -1.6 l 3.3 0 l 0 1.6 l 3.3 0 l 0 1.6 l -1.3 0 l -2 3.9 l 0 1.3 l 1.5 1.5 l -1.1 1.1 l -0.3 -0.2 l 0 3.8 l 6.2 0 c 0.2 0 0.5 -0.2 0.5 -0.5 l 0 -15.4 c -0.2 -0.3 -0.3 -0.5 -0.5 -0.5 l 0 0 z" id="svg_10" stroke="null" fill="#16731f"/>
   </g>
   <g class="icon-color" id="svg_11" stroke="null">
    <path d="M 28.3 32 l -0.8 3.3 l 2.5 0 l -0.8 -3.3 l -0.8 0 z" id="svg_12" stroke="null" fill="#16731f"/>
    <path d="M 36.5 27.1 l -15.6 0 c -0.3 0 -0.5 0.2 -0.5 0.5 l 0 15.6 c 0 0.2 0.2 0.3 0.5 0.3 l 15.6 0 c 0.2 0 0.5 -0.2 0.5 -0.5 l 0 -15.4 c -0.2 -0.3 -0.3 -0.5 -0.5 -0.5 z m -5.4 13.1 l -0.8 -3.3 l -3.3 0 l -0.8 3.3 l -1.6 0 l 2.5 -9.8 l 3.3 0 l 2.5 9.8 l -1.6 0 z" id="svg_13" stroke="null" fill="#16731f"/>
   </g>
 </g>
</svg>
